<?xml version="1.0" encoding="UTF-8"?>
<svg xmlns="http://www.w3.org/2000/svg" xmlns:xlink="http://www.w3.org/1999/xlink" viewBox="0 0 80 80" width="80px" height="80px">
<g id="surface123354839">
<path style=" stroke:none;fill-rule:nonzero;fill:rgb(80.000001%,80.000001%,80.000001%);fill-opacity:1;" d="M 40 63.601562 C 26.964844 63.601562 16.398438 53.035156 16.398438 40 C 16.398438 26.964844 26.964844 16.398438 40 16.398438 C 53.035156 16.398438 63.601562 26.964844 63.601562 40 C 63.601562 53.035156 53.035156 63.601562 40 63.601562 Z M 40 63.601562 "/>
<path style=" stroke:none;fill-rule:nonzero;fill:rgb(0%,0%,0%);fill-opacity:1;" d="M 40 18 C 52.148438 18 62 27.851562 62 40 C 62 52.148438 52.148438 62 40 62 C 27.851562 62 18 52.148438 18 40 C 18 27.851562 27.851562 18 40 18 Z M 47.589844 48.96875 C 47.992188 47.726562 49.890625 35.351562 50.121094 32.914062 C 50.195312 32.175781 49.960938 31.683594 49.503906 31.464844 C 48.949219 31.199219 48.132812 31.332031 47.183594 31.675781 C 45.878906 32.144531 29.222656 39.214844 28.261719 39.625 C 27.351562 40.015625 26.488281 40.4375 26.488281 41.050781 C 26.488281 41.480469 26.742188 41.722656 27.445312 41.972656 C 28.179688 42.234375 30.023438 42.792969 31.113281 43.09375 C 32.164062 43.382812 33.359375 43.132812 34.027344 42.714844 C 34.738281 42.273438 42.929688 36.796875 43.515625 36.3125 C 44.101562 35.835938 44.570312 36.449219 44.09375 36.929688 C 43.613281 37.410156 37.988281 42.867188 37.246094 43.621094 C 36.347656 44.539062 36.984375 45.492188 37.589844 45.871094 C 38.28125 46.308594 43.238281 49.632812 43.988281 50.167969 C 44.734375 50.699219 45.492188 50.941406 46.183594 50.941406 C 46.878906 50.941406 47.242188 50.027344 47.589844 48.96875 Z M 47.589844 48.96875 "/>
</g>
</svg>
